<?xml version="1.0" encoding="utf-8"?>
<!-- Generator: Adobe Illustrator 18.1.1, SVG Export Plug-In . SVG Version: 6.00 Build 0)  -->
<!DOCTYPE svg PUBLIC "-//W3C//DTD SVG 1.1//EN" "http://www.w3.org/Graphics/SVG/1.1/DTD/svg11.dtd">
<svg version="1.1" id="Rounded_Rectangle_1__x2B__Rounded_Rectangle_1_copy__x2B__Group_1_xA0_Image_1_"
	 xmlns="http://www.w3.org/2000/svg" xmlns:xlink="http://www.w3.org/1999/xlink" x="0px" y="0px" viewBox="0 0 503 500"
	 enable-background="new 0 0 503 500" xml:space="preserve">
<path fill="#FFFFFF" d="M201.8,338.1c8.8,0,17.5,0,26.6,0c0,17.3-13.3,29.3-15.5,45.2c-15.6,6-31.5,10.9-49.8,13.3
	C178.7,377.7,191.9,358.9,201.8,338.1z"/>
<path fill="#FFFFFF" d="M188.1,179.6c8.7,14,19.4,26.9,25,42.4c8.4,23.6,17.2,47.4,15.3,73.9c-7.7,0-15.3,0-22.9,0
	c0.1-9.7-1.8-18.9-6.8-27.2c-5.4-8.9-13.6-12.5-23.6-11.9c-7.6,0.5-8.9,6.7-9.4,12.6c-1,12.3,2.1,24,5.5,35.7
	c-13.4,3.4-44.3-11-53.7-24.8c-15.9-23.4-17-54.3-2.6-74.7C132.7,180.3,157.2,171.5,188.1,179.6z"/>
<path fill="#FFFFFF" d="M315.5,179.6c-8.7,14-19.4,26.9-25,42.4c-8.4,23.6-17.2,47.4-15.3,73.9c7.7,0,15.3,0,22.9,0
	c-0.1-9.7,1.8-18.9,6.8-27.2c5.4-8.9,13.6-12.5,23.6-11.9c7.6,0.5,8.9,6.7,9.4,12.6c1,12.3-2.1,24-5.5,35.7
	c13.4,3.4,44.3-11,53.7-24.8c15.9-23.4,17-54.3,2.6-74.7C370.9,180.3,346.4,171.5,315.5,179.6z"/>
<path fill="#FFFFFF" d="M301.8,338.1c-8.8,0-17.5,0-26.6,0c0,17.3,13.3,29.3,15.5,45.2c15.6,6,31.5,10.9,49.8,13.3
	C324.8,377.7,311.7,358.9,301.8,338.1z"/>
<g id="Layer_2">
	<polygon fill="#FFFFFF" points="305.8,338.1 256.5,338.1 256.5,295.3 305.8,295.3 321.2,315.8 	"/>
	<polygon fill="#FFFFFF" points="197.2,338.1 246.5,338.1 246.5,295.3 197.2,295.3 181.9,315.8 	"/>
</g>
<g id="Layer_3">
	<path fill="#FFFFFF" d="M270.2,338.1c0,17.3,13.3,29.3,15.5,45.2c1.9,9,3.3,18,0.4,26.9c-5.2,16.1-17.1,27.4-28.6,38.9
		c-1.6,1.6-2.7,4.5-5.9,3.7c0-134.6,0-269.1,0-403.7c1.8-0.4,1.9,0.9,2.6,2.1c5.8,10.3,9.5,22.4,20.7,28.5c9.1,5.1,18.7,9.2,26.8,16
		c13,10.9,21.3,23.5,21.4,41.7c0.1,15.2-4.9,28.1-11.4,41.1c-8.7,14-19.4,26.9-25,42.4c-8.4,23.6-17.2,47.4-15.3,73.9L270.2,338.1z"
		/>
	<path fill="#FFFFFF" d="M233.3,338.1c0,17.3-13.3,29.3-15.5,45.2c-1.9,9-3.3,18-0.4,26.9c5.2,16.1,17.1,27.4,28.6,38.9
		c1.6,1.6,2.7,4.5,5.9,3.7c0-134.6,0-269.1,0-403.7c-1.8-0.4-1.9,0.9-2.6,2.1c-5.8,10.3-9.5,22.4-20.7,28.5
		c-9.1,5.1-18.7,9.2-26.8,16c-13,10.9-21.3,23.5-21.4,41.7c-0.1,15.2,4.9,28.1,11.4,41.1c8.7,14,19.4,26.9,25,42.4
		c8.4,23.6,17.2,47.4,15.3,73.9L233.3,338.1z"/>
</g>
</svg>
